# xmcd
#
# Track frame offsets:
#	150
#	13865
#	25300
#	36290
#	45342
#	60027
#	70977
#	84000
#	96825
#	107595
#	116227
#	129830
#	141860
#	152737
#	165902
#	180262
#	194412
#	204957
#	216200
#	230307
#
# Disc length: 3217 seconds
#
# Revision: 0
# Processed by: cddbd v1.5.1PL0 Copyright (c) Steve Scherf et al.
# Submitted via: dBpowerAMP V4.0
#
DISCID=f80c8f14
DTITLE=Rosemary Clooney and Patti Page - 20 Greatest hits
DYEAR=1900
DGENRE=Country
TTITLE0=Hey There - RC
TTITLE1=Mambo Italiano - RC
TTITLE2=I Could Have Danced All Night - RC
TTITLE3=Come On A My House - RC
TTITLE4=Beautiful Brown Eyes - RC
TTITLE5=Where Will The Dimple Be - RC
TTITLE6=You're Just In Love - RC
TTITLE7=Half As Much - RC
TTITLE8=Be My Life's Companion - RC
TTITLE9=If Teardrops Were Pennies - RC
TTITLE10=Mocking Bird Hill - PP
TTITLE11=Doggie In The Window -PP
TTITLE12=Tennessee Waltz - PP
TTITLE13=Allegheny Moon - PP
TTITLE14=Try To Remember - PP
TTITLE15=Old Cape Cod - PP
TTITLE16=Say Wonderful Things - PP
TTITLE17=Cant't Get Used To Losing You - PP
TTITLE18=Danny Boy - PP
TTITLE19=Can't Help Falling In Love - PP
EXTD=
EXTT0=
EXTT1=
EXTT2=
EXTT3=
EXTT4=
EXTT5=
EXTT6=
EXTT7=
EXTT8=
EXTT9=
EXTT10=
EXTT11=
EXTT12=
EXTT13=
EXTT14=
EXTT15=
EXTT16=
EXTT17=
EXTT18=
EXTT19=
PLAYORDER=
